<?xml version="1.0" encoding="UTF-8"?>
<svg id="Layer_1" data-name="Layer 1" xmlns="http://www.w3.org/2000/svg" xmlns:xlink="http://www.w3.org/1999/xlink" viewBox="0 0 1183.08 1144.14">
  <defs>
    <style>
      .cls-1 {
        fill: #1a171b;
      }

      .cls-1, .cls-2, .cls-3, .cls-4, .cls-5, .cls-6, .cls-7, .cls-8, .cls-9, .cls-10, .cls-11, .cls-12, .cls-13, .cls-14, .cls-15, .cls-16, .cls-17, .cls-18, .cls-19 {
        stroke-width: 0px;
      }

      .cls-2 {
        fill: url(#linear-gradient);
      }

      .cls-3 {
        fill: url(#linear-gradient-11);
      }

      .cls-4 {
        fill: url(#linear-gradient-12);
      }

      .cls-5 {
        fill: url(#linear-gradient-13);
      }

      .cls-6 {
        fill: url(#linear-gradient-10);
      }

      .cls-7 {
        fill: url(#linear-gradient-16);
      }

      .cls-8 {
        fill: url(#linear-gradient-15);
      }

      .cls-9 {
        fill: url(#linear-gradient-14);
      }

      .cls-10 {
        fill: #2c2c2d;
      }

      .cls-11 {
        fill: url(#linear-gradient-4);
      }

      .cls-12 {
        fill: url(#linear-gradient-2);
      }

      .cls-13 {
        fill: url(#linear-gradient-3);
      }

      .cls-14 {
        fill: url(#linear-gradient-8);
      }

      .cls-15 {
        fill: url(#linear-gradient-9);
      }

      .cls-16 {
        fill: url(#linear-gradient-7);
      }

      .cls-17 {
        fill: url(#linear-gradient-5);
      }

      .cls-18 {
        fill: url(#linear-gradient-6);
      }

      .cls-19 {
        fill: #3e3d40;
      }
    </style>
    <linearGradient id="linear-gradient" x1="75.93" y1="1144.14" x2="75.93" y2="1019.75" gradientUnits="userSpaceOnUse">
      <stop offset="0" stop-color="#f6f6f6"/>
      <stop offset="1" stop-color="#3e3d40"/>
    </linearGradient>
    <linearGradient id="linear-gradient-2" x1="229.78" x2="229.78" xlink:href="#linear-gradient"/>
    <linearGradient id="linear-gradient-3" x1="374.9" x2="374.9" xlink:href="#linear-gradient"/>
    <linearGradient id="linear-gradient-4" x1="506.02" x2="506.02" xlink:href="#linear-gradient"/>
    <linearGradient id="linear-gradient-5" x1="633.7" y1="1142.41" x2="633.7" y2="1021.47" xlink:href="#linear-gradient"/>
    <linearGradient id="linear-gradient-6" x1="759.82" y1="1143.96" x2="759.82" xlink:href="#linear-gradient"/>
    <linearGradient id="linear-gradient-7" x1="884.55" x2="884.55" xlink:href="#linear-gradient"/>
    <linearGradient id="linear-gradient-8" x1="1003.23" y1="1142.41" x2="1003.23" y2="1021.47" xlink:href="#linear-gradient"/>
    <linearGradient id="linear-gradient-9" x1="1125.63" y1="1142.41" x2="1125.63" y2="1021.47" xlink:href="#linear-gradient"/>
    <linearGradient id="linear-gradient-10" x1="365.47" y1="640.2" x2="409.32" y2="640.2" xlink:href="#linear-gradient"/>
    <linearGradient id="linear-gradient-11" x1="117.97" y1="480.44" x2="1078.86" y2="480.44" xlink:href="#linear-gradient"/>
    <linearGradient id="linear-gradient-12" x1="394.76" y1="182.58" x2="927.01" y2="182.58" xlink:href="#linear-gradient"/>
    <linearGradient id="linear-gradient-13" x1="399.48" y1="322.06" x2="757.71" y2="322.06" xlink:href="#linear-gradient"/>
    <linearGradient id="linear-gradient-14" x1="280.88" y1="358.26" x2="543.39" y2="358.26" xlink:href="#linear-gradient"/>
    <linearGradient id="linear-gradient-15" x1="778.48" y1="475.49" x2="831.36" y2="475.49" xlink:href="#linear-gradient"/>
    <linearGradient id="linear-gradient-16" x1="741.83" y1="424.71" x2="915.95" y2="424.71" xlink:href="#linear-gradient"/>
  </defs>
  <g>
    <path class="cls-2" d="M3.11,1141.37c-2.07-1.84-3.11-4.38-3.11-7.6v-71.18c0-13.36,3.8-23.85,11.4-31.44,7.6-7.6,18.08-11.4,31.44-11.4,6.45,0,12.53,1.58,18.23,4.75,5.7,3.17,10.63,7.69,14.77,13.56,4.03-5.98,8.89-10.54,14.6-13.65s11.89-4.66,18.57-4.66c13.36,0,23.84,3.8,31.44,11.4,7.6,7.6,11.4,18.08,11.4,31.44v71.18c0,3.11-1.07,5.61-3.2,7.51-2.13,1.9-4.92,2.85-8.38,2.85s-6.22-.92-8.29-2.77c-2.07-1.84-3.11-4.38-3.11-7.6v-71.18c0-8.75-1.61-15.06-4.84-18.92-3.23-3.86-8.52-5.79-15.89-5.79-6.68,0-11.84,2.14-15.46,6.39-3.63,4.27-5.44,10.37-5.44,18.32v71.18c0,3.22-1.04,5.76-3.11,7.6-2.07,1.84-4.84,2.77-8.29,2.77s-6.19-.92-8.21-2.77c-2.02-1.84-3.02-4.38-3.02-7.6v-71.18c0-7.72-1.85-13.76-5.53-18.14-3.69-4.38-8.81-6.57-15.37-6.57-7.37,0-12.67,1.93-15.9,5.79s-4.84,10.17-4.84,18.92v71.18c0,3.11-1.07,5.61-3.2,7.51-2.13,1.9-4.92,2.85-8.38,2.85s-6.22-.92-8.29-2.77Z"/>
    <path class="cls-12" d="M194.97,1136.27c-9.74-5.24-17.13-12.55-22.2-21.94-5.07-9.39-7.6-20.18-7.6-32.4s2.53-23,7.6-32.39c5.07-9.38,12.47-16.7,22.2-21.94,9.73-5.24,21.34-7.86,34.81-7.86s25.08,2.62,34.81,7.86c9.73,5.24,17.13,12.56,22.2,21.94,5.07,9.39,7.6,20.19,7.6,32.39s-2.54,23.01-7.6,32.4c-5.07,9.39-12.47,16.7-22.2,21.94-9.74,5.25-21.34,7.86-34.81,7.86s-25.08-2.62-34.81-7.86ZM260.36,1114.16c7.25-7.89,10.88-18.63,10.88-32.22s-3.77-24.47-11.31-32.3c-7.55-7.83-18.17-11.75-31.88-11.75-12.55,0-22.32,4-29.28,12.01-6.97,8.01-10.45,18.69-10.45,32.04s3.63,24.34,10.88,32.22c7.26,7.89,17.45,11.83,30.58,11.83s23.32-3.94,30.58-11.83Z"/>
    <path class="cls-13" d="M340.08,1136.27c-9.74-5.24-17.13-12.55-22.2-21.94-5.07-9.39-7.6-20.18-7.6-32.4s2.53-23,7.6-32.39c5.07-9.38,12.47-16.7,22.2-21.94,9.73-5.24,21.34-7.86,34.81-7.86s25.08,2.62,34.81,7.86c9.73,5.24,17.13,12.56,22.2,21.94,5.07,9.39,7.6,20.19,7.6,32.39s-2.54,23.01-7.6,32.4c-5.07,9.39-12.47,16.7-22.2,21.94-9.74,5.25-21.34,7.86-34.81,7.86s-25.08-2.62-34.81-7.86ZM405.48,1114.16c7.25-7.89,10.88-18.63,10.88-32.22s-3.77-24.47-11.31-32.3c-7.55-7.83-18.17-11.75-31.88-11.75-12.55,0-22.32,4-29.28,12.01-6.97,8.01-10.45,18.69-10.45,32.04s3.63,24.34,10.88,32.22c7.26,7.89,17.45,11.83,30.58,11.83s23.32-3.94,30.58-11.83Z"/>
    <path class="cls-11" d="M455.06,1141.37c-2.07-1.84-3.11-4.38-3.11-7.6v-65.13c0-15.32,4.78-27.3,14.34-35.93,9.56-8.64,22.8-12.96,39.74-12.96s30.17,4.32,39.74,12.96c9.56,8.64,14.34,20.62,14.34,35.93v65.13c0,3.22-1.04,5.76-3.11,7.6-2.07,1.84-4.84,2.77-8.29,2.77s-6.25-.95-8.38-2.85c-2.13-1.9-3.2-4.41-3.2-7.51v-65.65c0-9.79-2.65-17.28-7.95-22.46-5.3-5.19-13.02-7.78-23.15-7.78s-17.85,2.59-23.15,7.78c-5.3,5.18-7.95,12.67-7.95,22.46v65.65c0,3.11-1.07,5.61-3.2,7.51-2.13,1.9-4.92,2.85-8.38,2.85s-6.22-.92-8.29-2.77Z"/>
    <path class="cls-17" d="M585.84,1135.5c-4.83-4.61-7.25-11.06-7.25-19.35v-69.11c0-8.06,2.33-14.34,7-18.83,4.66-4.5,11.15-6.74,19.44-6.74h39.9c13.36,0,23.67,2.82,30.93,8.46,7.25,5.65,10.88,13.82,10.88,24.54,0,5.3-1.55,10.22-4.66,14.77-3.11,4.55-7.14,7.98-12.1,10.28v.17c5.53,2.19,10.05,5.68,13.56,10.46,3.52,4.78,5.27,9.93,5.27,15.46,0,11.52-3.71,20.53-11.14,27.04-7.43,6.51-17.66,9.76-30.67,9.76h-40.78c-8.75,0-15.55-2.3-20.38-6.91ZM644.92,1071.4c5.88,0,10.46-1.44,13.73-4.32,3.29-2.87,4.93-7.02,4.93-12.44s-1.56-9.21-4.67-11.75c-3.11-2.53-7.78-3.8-14-3.8h-36.28c-2.3,0-4.12.75-5.44,2.24-1.33,1.5-1.99,3.57-1.99,6.22v23.85h43.71ZM644.92,1124.79c13.83,0,20.73-6.28,20.73-18.83,0-5.41-1.81-9.62-5.44-12.61-3.63-2.99-8.73-4.49-15.29-4.49h-43.71v27.47c0,2.65.66,4.72,1.99,6.22,1.32,1.49,3.13,2.24,5.44,2.24h36.28Z"/>
    <path class="cls-18" d="M708.68,1141.2c-2.07-1.84-3.11-4.38-3.11-7.6v-60.47c0-16.7,4.78-29.77,14.34-39.22,9.56-9.44,22.86-14.16,39.91-14.16,11.17,0,20.84,2.13,29.03,6.39,8.17,4.26,14.43,10.43,18.74,18.49,4.32,8.06,6.48,17.57,6.48,28.5v60.47c0,3.22-1.04,5.76-3.12,7.6-2.07,1.84-4.83,2.76-8.29,2.76s-6.25-.95-8.38-2.85c-2.14-1.9-3.2-4.41-3.2-7.51v-28.16h-62.54v28.16c0,3.11-1.06,5.61-3.19,7.51s-4.93,2.85-8.38,2.85-6.22-.92-8.29-2.76ZM791.08,1087.64v-15.03c0-11.52-2.62-20.18-7.86-26-5.25-5.82-13.05-8.73-23.41-8.73-20.84,0-31.27,11.58-31.27,34.73v15.03h62.54Z"/>
    <path class="cls-16" d="M859.15,1138.52c-9.91-3.74-18.49-9.12-25.74-16.15-1.73-1.73-2.59-3.69-2.59-5.88,0-2.53,1.15-4.95,3.46-7.26,1.84-1.84,3.85-2.76,6.04-2.76,2.3,0,5.07,1.33,8.29,3.97,5.41,4.95,11.84,8.78,19.26,11.49,7.43,2.71,15.12,4.06,23.07,4.06s13.53-1.29,17.8-3.88c4.26-2.59,6.39-6.25,6.39-10.97s-2.3-8.95-6.91-12c-4.6-3.06-12.44-5.79-23.49-8.21-17.39-3.8-30.03-8.81-37.92-15.03-7.89-6.22-11.84-14.22-11.84-24.01,0-6.22,2.07-11.78,6.22-16.67,4.15-4.89,9.93-8.69,17.36-11.4,7.43-2.71,15.92-4.06,25.48-4.06,10.71,0,20.24,1.76,28.59,5.27,8.35,3.52,14.72,8.44,19.09,14.77,1.49,2.42,2.24,4.49,2.24,6.22-.11,2.88-1.55,5.36-4.32,7.43-1.5,1.04-3.23,1.55-5.19,1.55-3.57,0-6.51-1.38-8.81-4.15-3.34-4.03-7.8-7.2-13.39-9.5-5.59-2.3-11.66-3.46-18.22-3.46-8.18,0-14.54,1.24-19.09,3.72-4.55,2.48-6.82,5.91-6.82,10.28s2.21,7.98,6.65,10.8c4.44,2.82,12.12,5.5,23.07,8.03,12.09,2.88,21.82,6.13,29.19,9.77,7.37,3.63,12.76,7.92,16.16,12.87,3.4,4.96,5.1,10.89,5.1,17.8s-1.96,12.35-5.88,17.36-9.44,8.87-16.58,11.57c-7.14,2.71-15.44,4.06-24.88,4.06-11.29,0-21.88-1.87-31.79-5.62Z"/>
    <path class="cls-14" d="M963.15,1135.5c-4.84-4.61-7.26-11.06-7.26-19.35v-69.11c0-8.06,2.33-14.34,7-18.83,4.66-4.5,11.14-6.74,19.43-6.74h53.73c3.46,0,6.1.77,7.95,2.33,1.84,1.55,2.77,3.77,2.77,6.65s-.95,4.92-2.85,6.48c-1.9,1.55-4.53,2.33-7.86,2.33h-49.76c-2.3,0-4.12.75-5.44,2.24-1.33,1.5-1.99,3.57-1.99,6.22v24.01h44.05c3.46,0,6.1.78,7.95,2.33,1.84,1.55,2.77,3.78,2.77,6.65s-.95,4.92-2.85,6.48c-1.9,1.55-4.52,2.33-7.86,2.33h-44.05v26.61c0,2.65.66,4.72,1.99,6.22,1.33,1.5,3.14,2.24,5.44,2.24h53.56c3.46,0,6.1.78,7.95,2.33,1.84,1.55,2.77,3.78,2.77,6.65s-.95,4.92-2.85,6.48c-1.9,1.55-4.53,2.33-7.86,2.33h-56.32c-8.75,0-15.55-2.3-20.38-6.91Z"/>
    <path class="cls-15" d="M1075.44,1135.5c-4.84-4.61-7.26-11.06-7.26-19.35v-69.11c0-8.06,2.33-14.34,7-18.83,4.66-4.5,11.14-6.74,19.43-6.74h24.19c13.24,0,24.7,2.42,34.38,7.26,9.68,4.84,17.08,11.81,22.2,20.9,5.12,9.1,7.69,19.93,7.69,32.48s-2.57,23.35-7.69,32.39c-5.13,9.04-12.5,15.95-22.12,20.73-9.62,4.78-21.1,7.17-34.46,7.17h-22.98c-8.75,0-15.55-2.3-20.38-6.91ZM1117.08,1124.61c14.39,0,25.11-3.48,32.13-10.45,7.02-6.97,10.54-17.65,10.54-32.05s-3.54-25.14-10.63-32.22c-7.08-7.08-17.77-10.62-32.04-10.62h-18.49c-2.3,0-4.12.75-5.44,2.24-1.33,1.5-1.99,3.57-1.99,6.22v68.42c0,2.65.66,4.72,1.99,6.22,1.33,1.5,3.14,2.24,5.44,2.24h18.49Z"/>
  </g>
  <g>
    <path class="cls-1" d="M120.14,523.73c-.43-1.92-.6-3.91-.49-5.86.15,1.97.31,3.89.49,5.86Z"/>
    <path class="cls-1" d="M449.78,937.27c-1.34-.3-2.62-.75-3.85-1.28,1.27.43,2.56.86,3.85,1.28Z"/>
  </g>
  <g>
    <path class="cls-6" d="M389.32,800.47c-.51.02-.99.04-1.48.04-11.18,0-20.62-8.67-21.38-20.01-.65-9.66-.99-19.49-.99-29.52v-249.61c0-11.85,9.62-21.47,21.47-21.47,11.83,0,21.47,9.62,21.47,21.47v249.61c0,9.05.27,17.93.86,26.61.8,11.83-8.14,22.08-19.95,22.88Z"/>
    <path class="cls-3" d="M598.41,0C333.49,0,117.97,215.53,117.97,480.44c0,145.89,65.38,276.81,168.35,364.98l.02.02c1.5,1.29,2.97,2.53,4.49,3.8l.02.02c83.38,69.66,190.66,111.62,307.56,111.62,41.67,0,82.14-5.34,120.69-15.37.04,0,.08,0,.13-.02.04,0,.06-.02.11-.02s.06-.02.11-.02c.04-.02.08-.02.13-.02.57-.17,1.14-.32,1.71-.46.02,0,.06-.02.08-.02,31.87-8.44,62.44-20.08,91.36-34.56,1.2-.59,2.43-1.2,3.63-1.81,0-.02.02-.02.04-.04,155.66-79.57,262.47-241.59,262.47-428.08C1078.86,215.53,863.33,0,598.41,0ZM598.92,913.97c-6.43-11.6-21.34-49.14-21.34-147.18v-281.56c0-11.49,9.34-20.84,20.84-20.84,11.49,0,20.84,9.34,20.84,20.84l.02,102.96c-2.02,64.53-2.89,248.19,47.45,324.45-22.25,3.52-67.8,1.33-67.8,1.33ZM1000.53,585v-101.5c-.19-45.47-7.97-90.11-23.11-132.69-3.94-11.16-16.2-17.02-27.39-13.03-11.16,3.96-17,16.24-13.01,27.42,13.67,38.49,20.6,78.89,20.6,120.04v99.77c0,26.76,6.75,57.13,21.22,95.55,1.08,2.85,2.68,5.34,4.68,7.38-24.78,45.83-57.51,86.76-96.31,120.92-40.51-15.2-55.84-27.82-55.84-185.85,0-11.85-9.59-21.47-21.47-21.47-11.83,0-21.45,9.62-21.45,21.47,0,146.4,13.03,189.78,60.88,215.67-12.57,8.84-25.62,17.04-39.12,24.53-3.29-3.67-6.6-7.21-9.87-10.69-7.02-7.47-13.62-14.51-19.17-22-9.22-12.46-14.02-26.78-19.13-47.34-10.42-41.97-12.23-86.93-13.1-125.79-1.48-64.36-2.19-120.67-2.19-172.15,0-81.8-66.56-148.34-148.34-148.34-11.85,0-21.47,9.62-21.47,21.47,0,11.85,9.62,21.45,21.47,21.45,58.14,0,105.42,47.3,105.42,105.42,0,51.82.72,108.44,2.19,173.14.93,41.12,2.87,88.91,14.38,135.16,5.12,20.62,11.39,42.45,26.3,62.57,7.04,9.47,14.8,17.76,22.33,25.77.32.34.65.7.97,1.03-17.8,7.63-36.19,14.11-55.13,19.34h-.02c-37.01-16.05-57.09-171.43-52.7-313.38v-103.63c0-35.15-28.6-63.73-63.75-63.73-35.13,0-63.75,28.58-63.75,63.73v281.56c0,64.47,6.26,115.23,18.28,148.84-16.45-1.71-32.62-4.32-48.48-7.82-.13-1.35-.38-2.7-.76-4.05-7.11-24.65-10.71-50.97-10.71-78.26v-340.27c0-24.21,8.44-47.87,23.79-66.62,7.51-9.17,6.16-22.69-3.02-30.22-9.17-7.47-22.67-6.16-30.2,3.04-21.62,26.4-33.51,59.72-33.51,93.8v340.27c0,23.7,2.4,46.86,7.17,69.09-48.95-16.72-93.99-41.88-133.43-73.75v-188.7c0-11.83-9.62-21.45-21.45-21.45-11.85,0-21.47,9.62-21.47,21.45v149.01c-15.12-15.96-29.06-33.07-41.67-51.16v-244.76c0-83.93,29.69-165.67,83.62-230.12,7.59-9.09,6.39-22.65-2.7-30.24-9.09-7.57-22.63-6.39-30.22,2.7-60.38,72.17-93.63,163.67-93.63,257.66v167.53c-22.78-52.91-35.39-111.16-35.39-172.32,0-241.26,196.27-437.53,437.53-437.53,241.26,0,437.53,196.27,437.53,437.53,0,53.8-9.76,105.36-27.63,153.02-5.27-18.62-7.78-34.42-7.78-48.46Z"/>
    <path class="cls-4" d="M918.24,277.89c-3.82,2.8-8.27,4.15-12.65,4.15-6.62,0-13.12-3.04-17.34-8.77-67.61-92.2-175.99-147.24-289.84-147.24-60.02,0-119.47,15.16-171.89,43.86-10.35,5.69-23.41,1.88-29.12-8.52-5.67-10.4-1.88-23.43,8.54-29.12,58.69-32.16,125.27-49.14,192.48-49.14,127.48,0,248.78,61.6,324.45,164.79,7,9.55,4.93,22.99-4.62,29.99Z"/>
    <path class="cls-5" d="M752.53,338.98c-7.72,8.96-21.3,10-30.26,2.26-34.46-29.67-78.43-46.02-123.85-46.02-64.55,0-124.17,32.46-159.47,86.82-4.13,6.31-11.01,9.76-18.03,9.76-3.99,0-8.06-1.12-11.66-3.46-9.93-6.45-12.76-19.74-6.31-29.67,43.25-66.62,116.33-106.37,195.47-106.37,55.7,0,109.6,20.03,151.84,56.41,8.98,7.74,10,21.28,2.28,30.26Z"/>
    <path class="cls-9" d="M527.47,219.91c-119.93,32.1-203.68,141.19-203.68,265.32v32.12c0,11.83-9.62,21.45-21.45,21.45-11.85,0-21.47-9.62-21.47-21.45v-32.12c0-143.51,96.84-269.66,235.5-306.78,11.51-3.04,23.22,3.73,26.28,15.18,3.06,11.45-3.73,23.22-15.18,26.28Z"/>
    <path class="cls-8" d="M831.36,485.23v44.71c0,11.85-9.59,21.45-21.47,21.45-11.83,0-21.45-9.6-21.45-21.45v-44.71c0-19.65-3.02-39.06-8.94-57.66-3.61-11.3,2.61-23.37,13.9-26.97,11.28-3.59,23.37,2.61,26.97,13.9,7.28,22.84,10.99,46.65,10.99,70.73Z"/>
    <path class="cls-7" d="M915.95,485.23v124.78c0,11.83-9.6,21.45-21.45,21.45-11.85,0-21.47-9.62-21.47-21.45v-124.78c0-91.46-45.51-176.7-121.72-228.01-9.83-6.62-12.44-19.93-5.82-29.78,6.62-9.83,19.93-12.44,29.78-5.82,88.11,59.28,140.68,157.85,140.68,263.61Z"/>
  </g>
  <path class="cls-19" d="M1036.27,678.31c-33.45,74.74-87.33,141.09-154.06,191.71-.06.06-.12.12-.25.25-9.44,7.22-19.2,14.07-29.19,20.61,0,.06-.06.06-.12.06-77.64,50.86-169.67,81.22-266.14,81.22-217.94,0-402.17-144.67-461.86-343.23-9.38-30.92-15.68-63.2-18.52-96.47-1.3-14.01-1.91-28.27-1.91-42.65,0-201.77,125.48-377.49,301.38-449.45-26.91,60.18-43.51,129.74-43.51,199.98,0,248.49,187.88,453.03,429.27,479.45,17.41,1.91,35.12,2.9,53.02,2.9,35.86,0,73.76-6.6,109.93-16.42,29.01-7.84,56.91-17.78,81.97-27.96Z"/>
  <path class="cls-10" d="M174.89,578.88c0,27.65-22.4,50.06-50.06,50.06h-.18c-9.38-30.92-15.68-63.2-18.52-96.47,5.8-2.35,12.1-3.64,18.7-3.64,27.65,0,50.06,22.4,50.06,50.06Z"/>
  <circle class="cls-10" cx="422.38" cy="667.67" r="25.03"/>
  <circle class="cls-10" cx="203.92" cy="325.27" r="12.57"/>
  <path class="cls-10" d="M958.56,732.81c0,21.79-8.27,41.6-21.85,56.6-.06.06-.12.12-.25.25-9.44,7.22-19.2,14.07-29.19,20.61,0,.06-.06.06-.12.06-10.06,4.26-21.11,6.6-32.71,6.6-46.41,0-84.13-37.65-84.13-84.13,0-4.44.37-8.76,1.05-13.02,17.41,1.91,35.12,2.9,53.02,2.9,35.86,0,73.76-6.6,109.93-16.42,2.78,8.33,4.26,17.28,4.26,26.54Z"/>
  <circle class="cls-10" cx="309.1" cy="203.11" r="29.45"/>
  <circle class="cls-10" cx="362.12" cy="802.87" r="70.22"/>
</svg>